<?xml version="1.0" encoding="UTF-8"?>
<svg xmlns="http://www.w3.org/2000/svg" xmlns:xlink="http://www.w3.org/1999/xlink" width="27px" height="27px" viewBox="0 0 27 27" version="1.1">
<g id="surface1">
<path style=" stroke:none;fill-rule:evenodd;fill:rgb(5.882353%,9.019608%,16.078431%);fill-opacity:1;" d="M 13.816406 4.179688 C 13.609375 4.121094 13.390625 4.121094 13.183594 4.179688 C 13.125 4.199219 13.023438 4.242188 12.800781 4.40625 C 12.570312 4.582031 12.285156 4.835938 11.839844 5.230469 L 5.945312 10.46875 C 5.222656 11.113281 5.019531 11.304688 4.875 11.519531 C 4.738281 11.726562 4.636719 11.953125 4.574219 12.191406 C 4.507812 12.441406 4.5 12.722656 4.5 13.691406 L 4.5 18 C 4.5 19.0625 4.5 19.804688 4.539062 20.386719 C 4.578125 20.957031 4.652344 21.289062 4.757812 21.542969 C 5.097656 22.367188 5.757812 23.027344 6.582031 23.367188 C 6.835938 23.472656 7.167969 23.546875 7.738281 23.585938 C 8.320312 23.625 9.0625 23.625 10.125 23.625 L 16.875 23.625 C 17.9375 23.625 18.679688 23.625 19.261719 23.585938 C 19.832031 23.546875 20.164062 23.472656 20.417969 23.367188 C 21.242188 23.027344 21.902344 22.367188 22.242188 21.542969 C 22.347656 21.289062 22.421875 20.957031 22.460938 20.386719 C 22.5 19.804688 22.5 19.0625 22.5 18 L 22.5 13.691406 C 22.5 12.722656 22.492188 12.441406 22.425781 12.191406 C 22.363281 11.953125 22.261719 11.726562 22.125 11.519531 C 21.980469 11.304688 21.777344 11.113281 21.054688 10.46875 L 15.160156 5.230469 C 14.714844 4.835938 14.429688 4.582031 14.199219 4.40625 C 13.976562 4.242188 13.875 4.199219 13.816406 4.179688 Z M 12.554688 2.019531 C 13.171875 1.839844 13.828125 1.839844 14.445312 2.019531 C 14.871094 2.144531 15.226562 2.363281 15.558594 2.613281 C 15.867188 2.851562 16.21875 3.160156 16.625 3.519531 L 22.546875 8.789062 C 22.582031 8.816406 22.613281 8.84375 22.644531 8.871094 C 23.230469 9.394531 23.671875 9.785156 23.996094 10.273438 C 24.269531 10.6875 24.476562 11.140625 24.601562 11.621094 C 24.75 12.1875 24.75 12.777344 24.75 13.5625 C 24.75 13.605469 24.75 13.648438 24.75 13.691406 L 24.75 18.039062 C 24.75 19.054688 24.75 19.871094 24.703125 20.539062 C 24.65625 21.222656 24.558594 21.828125 24.320312 22.402344 C 23.75 23.78125 22.65625 24.875 21.277344 25.445312 C 20.703125 25.683594 20.097656 25.78125 19.414062 25.828125 C 18.746094 25.875 17.929688 25.875 16.914062 25.875 L 10.085938 25.875 C 9.070312 25.875 8.253906 25.875 7.585938 25.828125 C 6.902344 25.78125 6.296875 25.683594 5.722656 25.445312 C 4.34375 24.875 3.25 23.78125 2.679688 22.402344 C 2.441406 21.828125 2.34375 21.222656 2.296875 20.539062 C 2.25 19.871094 2.25 19.054688 2.25 18.039062 L 2.25 13.691406 C 2.25 13.648438 2.25 13.605469 2.25 13.5625 C 2.25 12.777344 2.25 12.1875 2.398438 11.621094 C 2.523438 11.140625 2.726562 10.6875 3.003906 10.273438 C 3.328125 9.785156 3.769531 9.394531 4.355469 8.871094 C 4.386719 8.84375 4.417969 8.816406 4.453125 8.789062 L 10.375 3.519531 C 10.78125 3.160156 11.132812 2.851562 11.441406 2.613281 C 11.773438 2.363281 12.128906 2.144531 12.554688 2.019531 Z M 12.554688 2.019531 "/>
</g>
</svg>
