<?xml version="1.0" encoding="UTF-8"?>
<svg xmlns="http://www.w3.org/2000/svg" xmlns:xlink="http://www.w3.org/1999/xlink" width="27px" height="27px" viewBox="0 0 27 27" version="1.1">
<g id="surface1">
<path style=" stroke:none;fill-rule:evenodd;fill:rgb(0%,0%,0%);fill-opacity:1;" d="M 13.5 10.96875 C 12.101562 10.96875 10.96875 12.101562 10.96875 13.5 C 10.96875 14.898438 12.101562 16.03125 13.5 16.03125 C 14.898438 16.03125 16.03125 14.898438 16.03125 13.5 C 16.03125 12.101562 14.898438 10.96875 13.5 10.96875 Z M 9.28125 13.5 C 9.28125 11.171875 11.171875 9.28125 13.5 9.28125 C 15.828125 9.28125 17.71875 11.171875 17.71875 13.5 C 17.71875 15.828125 15.828125 17.71875 13.5 17.71875 C 11.171875 17.71875 9.28125 15.828125 9.28125 13.5 Z M 9.28125 13.5 "/>
<path style=" stroke:none;fill-rule:evenodd;fill:rgb(0%,0%,0%);fill-opacity:1;" d="M 10.804688 4.242188 C 10.503906 3.738281 9.867188 3.582031 9.398438 3.863281 L 9.386719 3.871094 L 7.4375 4.984375 C 6.824219 5.335938 6.609375 6.132812 6.964844 6.746094 L 6.234375 7.167969 L 6.960938 6.742188 C 7.5625 7.78125 7.726562 8.921875 7.1875 9.851562 C 6.652344 10.785156 5.585938 11.214844 4.386719 11.214844 C 3.675781 11.214844 3.09375 11.804688 3.09375 12.511719 L 3.09375 14.488281 C 3.09375 15.195312 3.675781 15.785156 4.386719 15.785156 C 5.585938 15.785156 6.652344 16.214844 7.1875 17.148438 C 7.726562 18.078125 7.566406 19.21875 6.960938 20.257812 C 6.609375 20.867188 6.824219 21.664062 7.4375 22.015625 L 9.398438 23.136719 C 9.867188 23.417969 10.503906 23.261719 10.804688 22.757812 L 10.925781 22.550781 C 11.527344 21.511719 12.433594 20.804688 13.511719 20.804688 C 14.585938 20.804688 15.492188 21.511719 16.085938 22.550781 C 16.085938 22.550781 16.089844 22.550781 16.089844 22.554688 L 16.207031 22.757812 C 16.507812 23.261719 17.144531 23.417969 17.613281 23.136719 L 17.625 23.128906 L 19.570312 22.015625 C 20.1875 21.664062 20.402344 20.878906 20.046875 20.253906 C 19.445312 19.214844 19.285156 18.078125 19.824219 17.148438 C 20.359375 16.214844 21.425781 15.785156 22.625 15.785156 C 23.335938 15.785156 23.917969 15.195312 23.917969 14.488281 L 23.917969 12.511719 C 23.917969 11.796875 23.332031 11.214844 22.625 11.214844 C 21.425781 11.214844 20.359375 10.785156 19.824219 9.851562 C 19.285156 8.921875 19.445312 7.78125 20.046875 6.742188 C 20.398438 6.132812 20.1875 5.335938 19.574219 4.984375 L 17.613281 3.863281 C 17.144531 3.582031 16.507812 3.738281 16.207031 4.242188 L 16.085938 4.449219 C 15.484375 5.488281 14.578125 6.195312 13.5 6.195312 C 12.425781 6.195312 11.519531 5.488281 10.925781 4.449219 C 10.921875 4.449219 10.921875 4.449219 10.921875 4.445312 Z M 8.542969 2.410156 C 9.847656 1.636719 11.5 2.113281 12.257812 3.382812 L 12.261719 3.390625 L 12.386719 3.605469 L 12.386719 3.609375 C 12.804688 4.335938 13.238281 4.507812 13.5 4.507812 C 13.765625 4.507812 14.203125 4.332031 14.625 3.605469 L 14.753906 3.382812 C 15.511719 2.113281 17.164062 1.636719 18.46875 2.410156 L 20.410156 3.519531 C 21.839844 4.339844 22.328125 6.171875 21.507812 7.589844 C 21.085938 8.316406 21.152344 8.78125 21.285156 9.011719 C 21.417969 9.238281 21.785156 9.527344 22.625 9.527344 C 24.257812 9.527344 25.605469 10.859375 25.605469 12.511719 L 25.605469 14.488281 C 25.605469 16.125 24.273438 17.472656 22.625 17.472656 C 21.785156 17.472656 21.417969 17.761719 21.285156 17.988281 C 21.152344 18.21875 21.085938 18.683594 21.507812 19.410156 L 21.511719 19.414062 C 22.324219 20.839844 21.84375 22.660156 20.410156 23.480469 L 18.46875 24.589844 C 17.164062 25.359375 15.511719 24.886719 14.753906 23.617188 L 14.75 23.609375 L 14.625 23.394531 L 14.625 23.390625 C 14.207031 22.667969 13.773438 22.492188 13.511719 22.492188 C 13.246094 22.492188 12.808594 22.667969 12.386719 23.394531 L 12.257812 23.617188 C 11.5 24.886719 9.847656 25.359375 8.542969 24.589844 L 6.601562 23.480469 C 5.171875 22.660156 4.683594 20.828125 5.5 19.410156 L 5.503906 19.410156 C 5.925781 18.683594 5.859375 18.21875 5.726562 17.988281 C 5.59375 17.761719 5.226562 17.472656 4.386719 17.472656 C 2.738281 17.472656 1.40625 16.125 1.40625 14.488281 L 1.40625 12.511719 C 1.40625 10.875 2.738281 9.527344 4.386719 9.527344 C 5.226562 9.527344 5.59375 9.238281 5.726562 9.011719 C 5.859375 8.78125 5.925781 8.316406 5.503906 7.589844 L 5.5 7.589844 C 4.683594 6.171875 5.167969 4.339844 6.601562 3.519531 Z M 8.542969 2.410156 "/>
</g>
</svg>
