<?xml version="1.0" encoding="UTF-8"?>
<svg xmlns="http://www.w3.org/2000/svg" xmlns:xlink="http://www.w3.org/1999/xlink" width="27px" height="27px" viewBox="0 0 27 27" version="1.1">
<g id="surface1">
<path style=" stroke:none;fill-rule:nonzero;fill:rgb(0%,0%,0%);fill-opacity:1;" d="M 7.878906 2.484375 C 7.101562 1.367188 5.800781 0.640625 4.332031 0.640625 C 1.945312 0.640625 0 2.585938 0 4.980469 C 0 6.445312 0.726562 7.742188 1.84375 8.523438 C 3.105469 5.886719 5.242188 3.746094 7.878906 2.484375 Z M 7.878906 2.484375 "/>
<path style=" stroke:none;fill-rule:nonzero;fill:rgb(0%,0%,0%);fill-opacity:1;" d="M 22.660156 0.640625 C 21.164062 0.640625 19.847656 1.402344 19.066406 2.558594 C 21.667969 3.84375 23.773438 5.992188 25 8.621094 C 26.203125 7.859375 27 6.511719 27 4.980469 C 27 2.585938 25.054688 0.640625 22.660156 0.640625 Z M 22.660156 0.640625 "/>
<path style=" stroke:none;fill-rule:nonzero;fill:rgb(0%,0%,0%);fill-opacity:1;" d="M 25.011719 14.042969 C 25.011719 7.683594 19.859375 2.535156 13.5 2.53125 C 7.140625 2.535156 1.988281 7.683594 1.988281 14.042969 C 1.988281 17.664062 3.660156 20.886719 6.269531 22.996094 L 5.496094 24.347656 C 5.125 24.992188 5.347656 25.8125 5.992188 26.179688 C 6.636719 26.550781 7.457031 26.324219 7.824219 25.683594 L 8.546875 24.425781 C 10.046875 25.144531 11.722656 25.554688 13.5 25.558594 C 15.277344 25.554688 16.953125 25.144531 18.453125 24.425781 L 19.175781 25.683594 C 19.542969 26.324219 20.367188 26.550781 21.007812 26.179688 C 21.652344 25.8125 21.875 24.992188 21.503906 24.347656 L 20.730469 22.996094 C 23.339844 20.886719 25.011719 17.664062 25.011719 14.042969 Z M 13.5 5.371094 C 15.902344 5.371094 18.058594 6.339844 19.632812 7.910156 C 21.207031 9.484375 22.175781 11.644531 22.175781 14.042969 C 22.175781 16.445312 21.207031 18.605469 19.632812 20.179688 C 18.058594 21.75 15.902344 22.71875 13.5 22.71875 C 11.101562 22.71875 8.941406 21.75 7.367188 20.179688 C 5.792969 18.605469 4.828125 16.445312 4.824219 14.042969 C 4.828125 11.644531 5.792969 9.484375 7.367188 7.910156 C 8.941406 6.339844 11.101562 5.371094 13.5 5.371094 Z M 13.5 5.371094 "/>
<path style=" stroke:none;fill-rule:nonzero;fill:rgb(0%,0%,0%);fill-opacity:1;" d="M 13.5 14.9375 L 18.507812 14.832031 C 18.914062 14.832031 19.246094 14.5 19.246094 14.09375 C 19.246094 13.6875 18.914062 13.355469 18.507812 13.355469 L 14.320312 13.269531 L 14.152344 7.5625 C 14.152344 7.203125 13.863281 6.910156 13.5 6.910156 C 13.140625 6.910156 12.847656 7.203125 12.847656 7.5625 L 12.65625 14.09375 C 12.65625 14.558594 13.035156 14.9375 13.5 14.9375 Z M 13.5 14.9375 "/>
</g>
</svg>
