<?xml version="1.0" encoding="UTF-8"?>
<svg xmlns="http://www.w3.org/2000/svg" xmlns:xlink="http://www.w3.org/1999/xlink" width="27px" height="27px" viewBox="0 0 27 27" version="1.1">
<g id="surface1">
<path style=" stroke:none;fill-rule:nonzero;fill:rgb(0.392157%,0%,0.784314%);fill-opacity:1;" d="M 6.878906 20.402344 C 6.644531 20.636719 6.453125 21.097656 6.453125 21.429688 L 6.453125 25.769531 L 8.972656 25.769531 L 8.972656 18.914062 C 8.972656 18.582031 8.78125 18.5 8.546875 18.738281 Z M 6.878906 20.402344 "/>
<path style=" stroke:none;fill-rule:nonzero;fill:rgb(0.392157%,0%,0.784314%);fill-opacity:1;" d="M 17.9375 16.292969 C 17.703125 16.527344 17.511719 16.988281 17.511719 17.324219 L 17.511719 25.769531 L 20.03125 25.769531 L 20.03125 14.800781 C 20.03125 14.46875 19.839844 14.390625 19.601562 14.625 Z M 17.9375 16.292969 "/>
<path style=" stroke:none;fill-rule:nonzero;fill:rgb(0.392157%,0%,0.784314%);fill-opacity:1;" d="M 21.625 12.601562 C 21.386719 12.835938 21.195312 13.296875 21.195312 13.632812 L 21.195312 25.769531 L 23.539062 25.769531 L 23.539062 11.292969 C 23.539062 10.960938 23.347656 10.882812 23.109375 11.117188 Z M 21.625 12.601562 "/>
<path style=" stroke:none;fill-rule:nonzero;fill:rgb(0.392157%,0%,0.784314%);fill-opacity:1;" d="M 14.328125 19.902344 C 14.328125 19.902344 14.214844 20.015625 14.074219 20.15625 C 13.9375 20.292969 13.824219 20.675781 13.824219 21.011719 L 13.824219 25.769531 L 16.34375 25.769531 L 16.34375 18.492188 C 16.34375 18.160156 16.152344 18.082031 15.917969 18.316406 Z M 14.328125 19.902344 "/>
<path style=" stroke:none;fill-rule:nonzero;fill:rgb(0.392157%,0%,0.784314%);fill-opacity:1;" d="M 10.566406 18.625 C 10.332031 18.390625 10.140625 18.46875 10.140625 18.800781 L 10.140625 25.769531 L 12.65625 25.769531 L 12.65625 21.3125 C 12.65625 20.980469 12.476562 20.53125 12.253906 20.308594 L 11.847656 19.90625 Z M 10.566406 18.625 "/>
<path style=" stroke:none;fill-rule:nonzero;fill:rgb(0.392157%,0%,0.784314%);fill-opacity:1;" d="M 3.710938 23.570312 L 2.898438 24.386719 C 2.664062 24.621094 2.472656 25.027344 2.472656 25.289062 L 2.472656 25.769531 L 5.28125 25.769531 L 5.28125 22.601562 C 5.28125 22.269531 5.09375 22.1875 4.855469 22.425781 Z M 3.710938 23.570312 "/>
<path style=" stroke:none;fill-rule:nonzero;fill:rgb(0.392157%,0%,0.784314%);fill-opacity:1;" d="M 26.574219 11.183594 C 26.808594 11.421875 27 11.339844 27 11.007812 L 27 2.390625 C 27 1.773438 26.410156 1.230469 25.796875 1.230469 L 17.226562 1.230469 C 16.894531 1.230469 16.8125 1.421875 17.050781 1.660156 L 20.097656 4.707031 L 18.855469 5.945312 L 13.089844 11.71875 L 10.039062 8.667969 C 9.804688 8.433594 9.421875 8.433594 9.1875 8.667969 L 0.707031 17.15625 C -0.234375 18.097656 -0.234375 19.625 0.707031 20.566406 L 0.765625 20.628906 C 1.707031 21.570312 3.234375 21.570312 4.175781 20.625 L 9.613281 15.1875 L 12.664062 18.234375 C 12.898438 18.46875 13.28125 18.46875 13.515625 18.234375 L 23.570312 8.179688 Z M 26.574219 11.183594 "/>
</g>
</svg>
