<?xml version="1.0" encoding="UTF-8"?>
<svg xmlns="http://www.w3.org/2000/svg" xmlns:xlink="http://www.w3.org/1999/xlink" width="30px" height="30px" viewBox="0 0 30 30" version="1.1">
<g id="surface1">
<path style=" stroke:none;fill-rule:nonzero;fill:rgb(0%,0%,0%);fill-opacity:1;" d="M 15 2.5 C 8.097656 2.5 2.5 8.097656 2.5 15 C 2.5 21.902344 8.097656 27.5 15 27.5 C 21.902344 27.5 27.5 21.902344 27.5 15 C 27.5 8.097656 21.902344 2.5 15 2.5 Z M 20 16.25 L 16.25 16.25 L 16.25 20 C 16.25 20.691406 15.691406 21.25 15 21.25 C 14.308594 21.25 13.75 20.691406 13.75 20 L 13.75 16.25 L 10 16.25 C 9.308594 16.25 8.75 15.691406 8.75 15 C 8.75 14.308594 9.308594 13.75 10 13.75 L 13.75 13.75 L 13.75 10 C 13.75 9.308594 14.308594 8.75 15 8.75 C 15.691406 8.75 16.25 9.308594 16.25 10 L 16.25 13.75 L 20 13.75 C 20.691406 13.75 21.25 14.308594 21.25 15 C 21.25 15.691406 20.691406 16.25 20 16.25 Z M 20 16.25 "/>
</g>
</svg>
